<svg xmlns:dc="http://purl.org/dc/elements/1.1/" xmlns:cc="http://creativecommons.org/ns#" xmlns:rdf="http://www.w3.org/1999/02/22-rdf-syntax-ns#" xmlns:svg="http://www.w3.org/2000/svg" xmlns="http://www.w3.org/2000/svg" viewBox="0 0 180 180"><metadata><rdf:RDF><cc:Work><dc:format>image/svg+xml</dc:format><dc:type rdf:resource="http://purl.org/dc/dcmitype/StillImage"/><dc:title>Bottts</dc:title><dc:creator><cc:Agent><dc:title>Pablo Stanley</dc:title></cc:Agent></dc:creator><dc:source>https://bottts.com/</dc:source><cc:license rdf:resource="https://bottts.com/"/><dc:contributor><cc:Agent><dc:title>Florian Körner</dc:title></cc:Agent></dc:contributor></cc:Work></rdf:RDF></metadata><mask id="avatarsRadiusMask"><rect width="180" height="180" rx="0" ry="0" x="0" y="0" fill="#fff"/></mask><g mask="url(#avatarsRadiusMask)"><g transform="translate(0, 66)"><path fill-rule="evenodd" clip-rule="evenodd" d="M14.9809 20.9141C14 22.8393 14 25.3595 14 30.4V45.6C14 50.6405 14 53.1607 14.9809 55.0859C15.8438 56.7794 17.2206 58.1562 18.9141 59.0191C20.8393 60 23.3595 60 28.4 60H35.6C40.6405 60 43.1607 60 45.0859 59.0191C46.7794 58.1562 48.1562 56.7794 49.0191 55.0859C50 53.1607 50 50.6405 50 45.6V30.4C50 25.3595 50 22.8393 49.0191 20.9141C48.1562 19.2206 46.7794 17.8438 45.0859 16.9809C43.1607 16 40.6405 16 35.6 16H28.4C23.3595 16 20.8393 16 18.9141 16.9809C17.2206 17.8438 15.8438 19.2206 14.9809 20.9141ZM130.981 20.9141C130 22.8393 130 25.3595 130 30.4V45.6C130 50.6405 130 53.1607 130.981 55.0859C131.844 56.7794 133.221 58.1562 134.914 59.0191C136.839 60 139.36 60 144.4 60H151.6C156.64 60 159.161 60 161.086 59.0191C162.779 58.1562 164.156 56.7794 165.019 55.0859C166 53.1607 166 50.6405 166 45.6V30.4C166 25.3595 166 22.8393 165.019 20.9141C164.156 19.2206 162.779 17.8438 161.086 16.9809C159.161 16 156.64 16 151.6 16H144.4C139.36 16 136.839 16 134.914 16.9809C133.221 17.8438 131.844 19.2206 130.981 20.9141Z" fill="#0076DE"/><mask id="sidesSquareMask0" mask-type="alpha" maskUnits="userSpaceOnUse" x="14" y="16" width="152" height="44"><path fill-rule="evenodd" clip-rule="evenodd" d="M14.9809 20.9141C14 22.8393 14 25.3595 14 30.4V45.6C14 50.6405 14 53.1607 14.9809 55.0859C15.8438 56.7794 17.2206 58.1562 18.9141 59.0191C20.8393 60 23.3595 60 28.4 60H35.6C40.6405 60 43.1607 60 45.0859 59.0191C46.7794 58.1562 48.1562 56.7794 49.0191 55.0859C50 53.1607 50 50.6405 50 45.6V30.4C50 25.3595 50 22.8393 49.0191 20.9141C48.1562 19.2206 46.7794 17.8438 45.0859 16.9809C43.1607 16 40.6405 16 35.6 16H28.4C23.3595 16 20.8393 16 18.9141 16.9809C17.2206 17.8438 15.8438 19.2206 14.9809 20.9141ZM130.981 20.9141C130 22.8393 130 25.3595 130 30.4V45.6C130 50.6405 130 53.1607 130.981 55.0859C131.844 56.7794 133.221 58.1562 134.914 59.0191C136.839 60 139.36 60 144.4 60H151.6C156.64 60 159.161 60 161.086 59.0191C162.779 58.1562 164.156 56.7794 165.019 55.0859C166 53.1607 166 50.6405 166 45.6V30.4C166 25.3595 166 22.8393 165.019 20.9141C164.156 19.2206 162.779 17.8438 161.086 16.9809C159.161 16 156.64 16 151.6 16H144.4C139.36 16 136.839 16 134.914 16.9809C133.221 17.8438 131.844 19.2206 130.981 20.9141Z" fill="white"/></mask><g mask="url(#sidesSquareMask0)"><rect width="180" height="76" fill="#FFCA28"/><rect y="38" width="180" height="38" fill="black" fill-opacity="0.1"/></g></g><g transform="translate(41, 0)"><path fill-rule="evenodd" clip-rule="evenodd" d="M52 5H48V36H40C38.8954 36 38 36.8954 38 38V52H62V38C62 36.8954 61.1046 36 60 36H52V5Z" fill="#E1E6E8"/><mask id="topAntennaMask0" mask-type="alpha" maskUnits="userSpaceOnUse" x="38" y="5" width="24" height="47"><path fill-rule="evenodd" clip-rule="evenodd" d="M52 5H48V36H40C38.8954 36 38 36.8954 38 38V52H62V38C62 36.8954 61.1046 36 60 36H52V5Z" fill="white"/></mask><g mask="url(#topAntennaMask0)"><rect width="100" height="52" fill="#FFCA28"/><rect x="38" y="36" width="24" height="16" fill="white" fill-opacity="0.2"/></g><path fill-rule="evenodd" clip-rule="evenodd" d="M50 16C54.4183 16 58 12.4183 58 8C58 3.58172 54.4183 0 50 0C45.5817 0 42 3.58172 42 8C42 12.4183 45.5817 16 50 16Z" fill="#FFE65C"/><path fill-rule="evenodd" clip-rule="evenodd" d="M53 8C54.6569 8 56 6.65685 56 5C56 3.34315 54.6569 2 53 2C51.3431 2 50 3.34315 50 5C50 6.65685 51.3431 8 53 8Z" fill="white"/></g><g transform="translate(25, 44)"><path fill-rule="evenodd" clip-rule="evenodd" d="M0 31C0 31.0205 0.0141049 30.8164 0 30C0.183375 29.5235 0.402009 28.5029 1 27C1.82671 23.944 3.7804 20.4435 7 17C16.6944 6.60017 35.1724 0 65 0C94.8276 0 113.306 6.60036 123 17C126.22 20.4435 128.173 23.944 129 27C129.598 28.5029 129.817 29.5236 130 30C129.986 30.8164 130 31.0205 130 31V70C130 69.8964 129.972 70.5012 130 71C129.739 73.1171 129.471 75.0149 129 77C127.814 82.9912 125.606 88.911 122 94C112.283 110.337 94.2553 120 65 120C35.7448 120 17.7164 110.338 8 94C4.39414 88.9108 2.1865 82.9912 1 77C0.529043 75.0149 0.261028 73.1171 0 71C0.0282767 70.5466 6.49997e-05 69.6771 0 70V31Z" fill="#E1E6E8"/><mask id="faceRound02Mask0" mask-type="alpha" maskUnits="userSpaceOnUse" x="0" y="0" width="130" height="120"><path fill-rule="evenodd" clip-rule="evenodd" d="M0 31C0 31.0205 0.0141049 30.8164 0 30C0.183375 29.5235 0.402009 28.5029 1 27C1.82671 23.944 3.7804 20.4435 7 17C16.6944 6.60017 35.1724 0 65 0C94.8276 0 113.306 6.60036 123 17C126.22 20.4435 128.173 23.944 129 27C129.598 28.5029 129.817 29.5236 130 30C129.986 30.8164 130 31.0205 130 31V70C130 69.8964 129.972 70.5012 130 71C129.739 73.1171 129.471 75.0149 129 77C127.814 82.9912 125.606 88.911 122 94C112.283 110.337 94.2553 120 65 120C35.7448 120 17.7164 110.338 8 94C4.39414 88.9108 2.1865 82.9912 1 77C0.529043 75.0149 0.261028 73.1171 0 71C0.0282767 70.5466 6.49997e-05 69.6771 0 70V31Z" fill="white"/></mask><g mask="url(#faceRound02Mask0)"><rect x="-4" y="-2" width="138" height="124" fill="#FFB300"/> undefined </g></g><g transform="translate(52, 124)"><rect x="28" y="10" width="6" height="14" rx="2" fill="black" fill-opacity="0.6"/><rect x="14" y="10" width="6" height="14" rx="2" fill="black" fill-opacity="0.6"/><rect x="42" y="10" width="6" height="14" rx="2" fill="black" fill-opacity="0.6"/><rect x="56" y="10" width="6" height="14" rx="2" fill="black" fill-opacity="0.6"/></g><g transform="translate(38, 76)"><rect y="11" width="104" height="34" rx="17" fill="black" fill-opacity="0.8"/><path fill-rule="evenodd" clip-rule="evenodd" d="M29 41C36.1797 41 42 35.1797 42 28C42 20.8203 36.1797 15 29 15C21.8203 15 16 20.8203 16 28C16 35.1797 21.8203 41 29 41Z" fill="#F1EEDA"/><path fill-rule="evenodd" clip-rule="evenodd" d="M75 41C82.1797 41 88 35.1797 88 28C88 20.8203 82.1797 15 75 15C67.8203 15 62 20.8203 62 28C62 35.1797 67.8203 41 75 41Z" fill="#F1EEDA"/><rect x="24" y="23" width="10" height="10" rx="2" fill="black" fill-opacity="0.8"/><rect x="70" y="23" width="10" height="10" rx="2" fill="black" fill-opacity="0.8"/></g></g></svg>